<svg width="180" height="180" viewBox="0 0 180 180" fill="none" xmlns="http://www.w3.org/2000/svg">
  <rect width="180" height="180" fill="#F4F4F0"/>
  <rect x="18" y="18" width="144" height="144" fill="#E1FF00" stroke="#000000" stroke-width="8"/>
  <rect x="26" y="26" width="144" height="144" fill="#000000" opacity="0.16"/>
  <rect x="34" y="34" width="112" height="112" fill="#0038FF" stroke="#000000" stroke-width="8"/>
  <rect x="110" y="26" width="44" height="44" fill="#FF0066" stroke="#000000" stroke-width="8" transform="rotate(8 110 26)"/>
  <path d="M58 60H101C119.225 60 134 74.7746 134 93V93C134 111.225 119.225 126 101 126H58V60Z" fill="#F4F4F0"/>
  <rect x="74" y="75" width="47" height="12" fill="#0038FF"/>
  <rect x="74" y="94" width="37" height="12" fill="#0038FF"/>
  <path d="M58 60H101C119.225 60 134 74.7746 134 93V93C134 111.225 119.225 126 101 126H58V60Z" stroke="#000000" stroke-width="8"/>
  <path d="M114 48L122 30" stroke="#000000" stroke-width="8"/>
  <path d="M128 54L140 40" stroke="#000000" stroke-width="8"/>
  <path d="M47 144H141" stroke="#000000" stroke-width="8"/>
</svg>
